<?xml version="1.0" encoding="UTF-8" standalone="no"?>
<svg
   id="Layer_1"
   data-name="Layer 1"
   viewBox="0 0 348.1 196.96"
   version="1.1"
   xml:space="preserve"
   xmlns="http://www.w3.org/2000/svg"
   xmlns:svg="http://www.w3.org/2000/svg"><defs
     id="defs1"><style
       id="style1">.cls-1{fill:#99425b;}.cls-2{fill:#fff;}.cls-3{fill:#e9551d;}.cls-4{fill:#ef7c10;}.cls-5{fill:#f6a307;}.cls-6{fill:#b91d1b;}.cls-7{fill:#020203;}</style><filter
       id="filter0_d_301_2"
       x="1.3902"
       y="10.4431"
       width="167.163"
       height="153.9"
       filterUnits="userSpaceOnUse"
       color-interpolation-filters="sRGB"><feFlood
         flood-opacity="0"
         result="BackgroundImageFix"
         id="feFlood4" /><feColorMatrix
         in="SourceAlpha"
         type="matrix"
         values="0 0 0 0 0 0 0 0 0 0 0 0 0 0 0 0 0 0 127 0"
         result="hardAlpha"
         id="feColorMatrix4" /><feOffset
         dx="2"
         dy="3"
         id="feOffset4" /><feGaussianBlur
         stdDeviation="4"
         id="feGaussianBlur4" /><feComposite
         in2="hardAlpha"
         operator="out"
         id="feComposite4" /><feColorMatrix
         type="matrix"
         values="0 0 0 0 0.108333 0 0 0 0 0.108333 0 0 0 0 0.108333 0 0 0 0.2 0"
         id="feColorMatrix5" /><feBlend
         mode="normal"
         in2="BackgroundImageFix"
         result="effect1_dropShadow_301_2"
         id="feBlend5" /><feBlend
         mode="normal"
         in="SourceGraphic"
         in2="effect1_dropShadow_301_2"
         result="shape"
         id="feBlend6" /></filter><clipPath
       id="clip0_301_2"><rect
         width="165"
         height="165"
         fill="white"
         id="rect6" /></clipPath></defs><path
     class="cls-3"
     d="M 134.49,28 A 67,67 0 0 1 146.33,65 62.44,62.44 0 0 0 129.87,46.48 72.41,72.41 0 0 1 138.43,82.81 32.55,32.55 0 0 0 124.62,63 c 4.3,10.75 8.43,23.54 2.07,33.22 a 93.11,93.11 0 0 0 -6,-15 81.23,81.23 0 0 1 -10.92,46 59.53,59.53 0 0 0 -8.2,-29.47 126.3,126.3 0 0 1 -5.71,38.43 101.78,101.78 0 0 0 -13.14,-33.15 133.18,133.18 0 0 1 -9.84,28.19 125.09,125.09 0 0 0 -9.87,-28 c -5.64,9.15 -4.66,20.73 -3.44,31.38 A 90.38,90.38 0 0 1 47.93,82.83 34.75,34.75 0 0 0 39.86,101 c -7.64,-9.9 -6.49,-23.7 -5,-36.13 A 61.76,61.76 0 0 0 19.08,84.77 C 17.73,68 25.93,52.14 33.9,37.29 A 60.08,60.08 0 0 1 16.35,53.42 270.55,270.55 0 0 0 26.85,22 23.19,23.19 0 0 1 19.34,32.82 7.66,7.66 0 0 1 18.81,34.89 C 14.22,45.06 2.68,58.51 2.06,59.69 c 0,0 7.28,-0.82 12.33,-5.51 -7.81,14.92 5.05,42.72 11.21,49.74 -1.18,-3.18 -0.92,-7.67 1.84,-9.67 -1.35,29.05 22.88,46 22.88,46 0,0 -3.32,-6.56 -0.52,-10.25 1.57,8 35.9,19.14 35.9,35.14 0,-16.23 36.92,-28 40.76,-50.29 0.62,0 1.57,6.59 -0.33,9 17.58,-10.33 29.18,-43.12 27.9,-52.6 2.76,3 4.37,9.78 4.37,9.78 0,0 10.59,-24.5 -0.33,-45.12 C 153.94,28 150,24.5 146.56,22 c 1.11,5 3.64,9.58 6.13,14.07 A 26.36,26.36 0 0 0 134.49,28 Z"
     transform="translate(-2.06,-3.03)"
     id="path3"
     style="display:inline" /><path
     class="cls-4"
     d="M 80.62,25 C 42.78,24.08 28.26,12.63 28.26,3 c 0,17.83 -8.23,24 -8.92,29.83 A 23.19,23.19 0 0 0 26.85,22 270.55,270.55 0 0 1 16.35,53.38 60.08,60.08 0 0 0 33.9,37.29 C 25.93,52.14 17.73,68 19.08,84.77 A 61.35,61.35 0 0 1 34.85,64.9 c -1.48,12.43 -2.59,26.26 5,36.23 A 34.7,34.7 0 0 1 48,82.93 90.45,90.45 0 0 0 59.61,134.77 c -1.18,-10.65 -2.2,-22.23 3.44,-31.38 a 124.08,124.08 0 0 1 9.87,28 133.07,133.07 0 0 0 9.84,-28.2 101.58,101.58 0 0 1 13.15,33.15 126.2,126.2 0 0 0 5.7,-38.43 59.88,59.88 0 0 1 8.2,29.48 81.17,81.17 0 0 0 10.92,-46 94.68,94.68 0 0 1 6,15 c 6.36,-9.7 2.23,-22.49 -2.06,-33.21 A 32.7,32.7 0 0 1 138.46,83 72.41,72.41 0 0 0 129.9,46.67 a 62.44,62.44 0 0 1 16.46,18.52 67.06,67.06 0 0 0 -11.83,-37 26.13,26.13 0 0 1 18.19,8.07 c -2.49,-4.49 -5,-9.08 -6.13,-14.07 -5.54,-3.93 -9.93,-5.44 -12.43,-19 -0.03,9.44 -15.67,22.72 -53.54,21.81 z"
     transform="translate(-2.06,-3.03)"
     id="path4"
     style="display:inline" /><path
     class="cls-5"
     d="m 60,31.22 c -6.69,5.81 -7.93,18.3 -6.65,27 a 21.76,21.76 0 0 1 6.25,-10.6 c -1.67,5 0.17,10.46 2.17,15.38 2.39,5.9 5.08,11.74 9,16.72 a 35.1,35.1 0 0 1 1.37,-20.53 c 0,2.46 1.32,4.73 2.5,6.89 a 119.6,119.6 0 0 1 11.8,31.58 c 5.34,-10.63 3.61,-23.38 7,-34.76 4.85,4.85 6.06,12.13 6.82,18.92 a 49.92,49.92 0 0 0 4.59,-28.53 29,29 0 0 1 7.9,12.71 46.24,46.24 0 0 0 -1,-23.38 c -1.48,-4.75 -4.07,-9.6 -8.63,-11.74 a 18.79,18.79 0 0 0 -5.54,-1.44 c -3.28,-0.46 -6.59,-0.72 -9.9,-1 A 64.1,64.1 0 0 0 75.45,28.34 21.75,21.75 0 0 0 64.2,32.7"
     transform="translate(-2.06,-3.03)"
     id="path5"
     style="display:inline" /><path
     class="cls-6"
     d="M 61,30.11 C 59.11,47 95.34,57.85 104.46,31.55 107.28,23.42 61.44,25.78 61,30.11 Z"
     transform="translate(-2.06,-3.03)"
     id="path6"
     style="display:inline" /><path
     class="cls-2"
     d="m 63.8,36.34 c 0,2.66 37.25,1.77 37.18,-0.66 0,-0.52 0.26,-6.13 0.3,-6.75 -10.46,0.56 -28.36,0.29 -37.51,3.08 v 4.33 z"
     transform="translate(-2.06,-3.03)"
     id="path7"
     style="display:inline" /><path
     class="cls-5"
     d="m 82.36,23.36 c 6.59,6.85 41.41,8.06 50.3,-2.53 -6.07,5.08 -14.14,4.56 -16.89,3.54 a 7.67,7.67 0 0 0 5.64,-5.9 C 106.23,33.78 101.77,7.52 82.56,21.55 66.69,10 56.26,26.37 44.16,20.7 l 5.15,3.67 c 0,0 -7.58,5 -16.89,-3.54 a 21.39,21.39 0 0 0 4.23,4.69 C 49.63,30 76.19,28.27 82.36,23.36 Z"
     transform="translate(-2.06,-3.03)"
     id="path8"
     style="display:inline" /><path
     class="cls-3"
     d="m 82.56,29.42 c 11.67,6.49 40.42,6.2 50.1,-8.56 v 0 c -8.89,10.56 -43.71,9.35 -50.3,2.5 -6.17,4.91 -32.73,6.64 -45.71,2.16 12.1,10.07 35.61,9.64 45.91,3.9 z"
     transform="translate(-2.06,-3.03)"
     id="path9"
     style="display:inline" /><path
     class="cls-3"
     d="m 86.52,159.66 c -6.75,3.77 -15.9,24.2 1.31,40.33 -1.31,-15.15 14.3,-23.81 -1.31,-40.33"
     transform="translate(-2.06,-3.03)"
     id="path10"
     style="display:inline" /><path
     class="cls-4"
     d="m 86.13,159.66 c -3.31,3.77 -6.72,24.2 1.74,40.33 -0.66,-15.15 5.9,-23.81 -1.74,-40.33"
     transform="translate(-2.06,-3.03)"
     id="path11"
     style="display:inline" /><path
     class="cls-7"
     d="m 66.59,156.41 c 1.34,-2.65 18.72,2.66 18.72,2.66 0,0 15.31,-6.1 18.1,-5.15 2.79,0.95 1.87,15.71 0,15.71 -1.87,0 -18.07,-8.27 -18.07,-8.27 0,0 -15.64,8.5 -17.18,8.27 C 66.62,169.4 65.8,158 66.59,156.41 Z"
     transform="translate(-2.06,-3.03)"
     id="path12"
     style="display:inline" /><g
     style="display:inline;fill:none"
     id="g12"
     transform="matrix(1.1649711,0,0,1.1758191,156.40878,-0.58201535)"><g
       filter="url(#filter0_d_301_2)"
       id="g3"
       clip-path="url(#clipPath6)"
       style="display:inline"><path
         d="M 120.831,57.2543 84.693,109.505 c -0.3831,0.554 -0.9372,0.969 -1.5782,1.182 -0.641,0.213 -1.3339,0.211 -1.9736,-0.003 -0.6397,-0.215 -1.1912,-0.632 -1.571,-1.187 -0.3797,-0.556 -0.567,-1.22 -0.5332,-1.891 l 1.4463,-28.8478 -23.349,-4.9518 c -0.499,-0.1057 -0.9639,-0.3324 -1.3536,-0.6599 -0.3897,-0.3274 -0.6922,-0.7456 -0.8806,-1.2175 -0.1884,-0.4719 -0.2569,-0.9829 -0.1995,-1.4878 0.0574,-0.5048 0.2389,-0.988 0.5285,-1.4067 L 91.3675,16.7837 c 0.3832,-0.5543 0.9373,-0.9692 1.5783,-1.1819 0.6411,-0.2127 1.334,-0.2116 1.9738,0.0033 0.6397,0.2148 1.1913,0.6316 1.571,1.1872 0.3797,0.5555 0.5669,1.2194 0.533,1.891 l -1.4463,28.8481 23.3487,4.9513 c 0.499,0.1058 0.964,0.3325 1.354,0.6599 0.39,0.3275 0.692,0.7457 0.88,1.2176 0.189,0.4719 0.257,0.9829 0.2,1.4877 -0.057,0.5049 -0.239,0.9881 -0.529,1.4068 z"
         fill="#fcc72b"
         id="path1" /><path
         d="m 82.9866,153.343 c -0.9612,0.001 -1.9131,-0.187 -2.8011,-0.555 -0.888,-0.368 -1.6946,-0.908 -2.3733,-1.588 L 43.6658,117.056 c -1.366,-1.373 -2.1317,-3.232 -2.1292,-5.169 0.0026,-1.937 0.7732,-3.795 2.143,-5.164 1.3697,-1.37 3.2268,-2.141 5.1639,-2.144 1.9372,-0.002 3.7964,0.763 5.1699,2.129 l 28.9732,28.97 63.1184,-63.1154 c 1.376,-1.3538 3.231,-2.109 5.161,-2.1011 1.931,0.0078 3.78,0.7781 5.144,2.143 1.365,1.365 2.136,3.2139 2.144,5.1442 0.007,1.9303 -0.748,3.7855 -2.102,5.1614 L 88.1597,151.2 c -0.6786,0.681 -1.485,1.22 -2.3728,1.588 -0.8877,0.368 -1.8394,0.556 -2.8003,0.555 z"
         fill="#729b1b"
         id="path2-0" /><path
         d="m 82.9572,153.343 c 0.9612,0.001 1.9131,-0.187 2.8011,-0.555 0.888,-0.368 1.6945,-0.908 2.3733,-1.588 l 34.1464,-34.144 c 1.366,-1.373 2.132,-3.232 2.129,-5.169 -0.002,-1.937 -0.773,-3.795 -2.143,-5.164 -1.37,-1.37 -3.227,-2.141 -5.164,-2.144 -1.937,-0.002 -3.796,0.763 -5.17,2.129 L 82.9572,135.678 19.8389,72.5626 c -1.376,-1.3538 -3.2312,-2.109 -5.1614,-2.1011 -1.9303,0.0078 -3.7793,0.7781 -5.14419,2.143 -1.36492,1.365 -2.1352,3.2139 -2.14306,5.1442 -0.00786,1.9303 0.74734,3.7855 2.1011,5.1614 L 77.784,151.2 c 0.6787,0.681 1.4851,1.22 2.3728,1.588 0.8878,0.368 1.8395,0.556 2.8004,0.555 z"
         fill="#729b1b"
         fill-opacity="0.5"
         id="path3-9" /></g></g></svg>
